<svg id="svg" version="1.1" xmlns="http://www.w3.org/2000/svg" xmlns:xlink="http://www.w3.org/1999/xlink" width="400" height="121.60000000000001" viewBox="0, 0, 400,121.60000000000001"><g id="svgg"><path id="path0" d="M34.220 27.000 C 33.545 27.770,32.354 32.090,31.574 36.600 L 30.156 44.800 21.078 44.800 C 11.079 44.800,8.800 45.765,8.800 50.000 C 8.800 54.101,11.167 55.200,20.000 55.200 C 25.433 55.200,28.000 55.491,28.000 56.108 C 28.000 56.607,27.578 59.307,27.062 62.108 L 26.123 67.200 18.719 67.200 C 10.728 67.200,8.800 68.032,8.800 71.479 C 8.800 75.612,10.775 76.800,17.645 76.800 C 24.984 76.800,24.648 76.214,22.815 85.789 C 21.239 94.026,22.329 96.800,27.141 96.800 C 29.657 96.800,31.053 94.140,32.388 86.800 C 34.388 75.808,33.468 76.800,41.654 76.800 C 45.584 76.800,48.800 76.948,48.800 77.130 C 48.800 77.311,48.260 80.281,47.600 83.730 C 45.682 93.754,46.489 96.800,51.063 96.800 C 54.306 96.800,55.613 94.348,57.150 85.380 L 58.613 76.848 68.277 76.624 C 77.892 76.401,77.948 76.389,79.171 74.200 C 81.868 69.372,79.380 67.638,69.371 67.373 C 59.647 67.115,60.131 67.598,61.710 59.733 L 62.621 55.200 69.710 55.200 C 77.563 55.200,80.000 53.969,80.000 50.000 C 80.000 46.220,77.487 44.800,70.800 44.800 C 63.913 44.800,64.261 45.435,65.972 36.000 C 67.356 28.365,66.555 26.115,62.326 25.760 C 58.433 25.433,57.893 26.337,56.181 36.050 L 54.710 44.400 47.355 44.630 C 43.310 44.757,40.000 44.698,40.000 44.500 C 40.000 44.303,40.540 41.319,41.200 37.870 C 42.711 29.972,42.703 28.417,41.143 26.857 C 39.468 25.183,35.747 25.260,34.220 27.000 M331.034 35.000 C 330.809 35.518,330.857 40.629,331.116 43.846 C 331.177 44.602,332.418 44.825,335.600 44.651 L 340.000 44.409 340.000 39.405 L 340.000 34.400 335.647 34.400 C 333.253 34.400,331.177 34.670,331.034 35.000 M97.930 36.294 C 97.693 36.912,97.612 38.988,97.750 40.908 L 98.000 44.400 105.400 44.630 L 112.800 44.860 112.800 64.030 L 112.800 83.200 117.600 83.200 L 122.400 83.200 122.400 64.000 L 122.400 44.800 130.040 44.800 L 137.680 44.800 137.440 40.200 L 137.200 35.600 117.780 35.386 C 101.707 35.208,98.286 35.365,97.930 36.294 M156.800 48.097 C 155.700 48.534,153.810 49.838,152.600 50.996 L 150.400 53.099 150.400 50.550 L 150.400 48.000 146.000 48.000 L 141.600 48.000 141.600 65.600 L 141.600 83.200 146.400 83.200 L 151.200 83.200 151.200 72.457 C 151.200 63.387,151.413 61.501,152.568 60.346 C 154.243 58.671,158.573 56.800,160.774 56.800 C 162.228 56.800,162.400 56.292,162.400 52.000 C 162.400 46.751,161.595 46.190,156.800 48.097 M176.008 48.212 C 156.902 54.576,163.797 84.958,184.095 83.849 C 192.045 83.414,202.350 76.047,198.416 73.611 C 196.350 72.332,190.896 71.712,190.561 72.718 C 189.337 76.388,180.877 77.000,177.538 73.662 C 173.224 69.347,173.851 69.056,187.487 69.044 C 202.049 69.032,201.950 69.070,201.315 63.714 C 199.854 51.374,188.110 44.181,176.008 48.212 M220.806 48.474 C 219.269 49.141,217.199 50.450,216.206 51.383 L 214.400 53.079 214.400 50.498 L 214.400 47.916 210.259 48.158 L 206.117 48.400 206.234 65.600 L 206.351 82.800 210.775 83.040 L 215.200 83.280 215.203 73.440 C 215.206 62.174,216.299 59.196,221.179 57.157 C 227.650 54.454,228.725 56.494,229.005 72.000 L 229.200 82.800 233.800 83.040 L 238.400 83.280 238.400 69.656 C 238.400 48.719,233.592 42.930,220.806 48.474 M356.808 48.252 C 349.802 50.484,345.038 58.807,345.763 67.551 C 347.454 87.947,377.470 89.892,381.626 69.875 C 384.758 54.789,371.782 43.484,356.808 48.252 M241.832 49.000 C 255.919 83.920,256.036 84.342,252.658 87.968 C 251.417 89.300,250.510 89.576,248.683 89.174 L 246.316 88.654 246.558 93.327 L 246.800 98.000 251.212 97.989 C 259.915 97.966,260.583 96.998,269.507 71.471 C 273.070 61.281,276.360 51.958,276.818 50.754 C 277.639 48.593,277.721 48.668,283.225 56.613 C 289.953 66.324,289.952 65.102,283.228 74.385 C 276.919 83.094,276.918 83.200,283.153 83.200 L 287.812 83.200 291.200 78.000 C 293.063 75.140,294.863 72.800,295.200 72.800 C 295.537 72.800,297.337 75.140,299.200 78.000 L 302.588 83.200 307.247 83.200 C 313.487 83.200,313.486 83.111,307.136 74.137 C 300.457 64.697,300.487 66.225,306.800 57.170 C 313.181 48.018,313.182 48.000,307.205 48.000 L 302.410 48.000 299.005 53.183 C 297.132 56.034,295.420 58.367,295.200 58.367 C 294.980 58.367,293.268 56.034,291.395 53.183 L 287.990 48.000 278.081 48.000 L 268.173 48.000 264.338 60.030 L 260.502 72.061 256.152 60.030 L 251.801 48.000 246.615 48.000 C 242.784 48.000,241.534 48.261,241.832 49.000 M330.741 65.400 L 331.185 82.800 335.593 83.040 L 340.000 83.280 340.000 65.640 L 340.000 48.000 335.149 48.000 L 330.297 48.000 330.741 65.400 M52.524 56.600 C 52.313 57.370,51.909 59.440,51.627 61.200 C 50.619 67.494,51.038 67.200,43.083 67.200 L 35.873 67.200 36.309 65.000 C 36.549 63.790,36.985 61.360,37.278 59.600 C 38.032 55.067,37.777 55.200,45.701 55.200 C 52.178 55.200,52.869 55.342,52.524 56.600 M188.862 57.538 C 193.081 61.758,192.291 62.400,182.875 62.400 C 174.927 62.400,174.569 62.327,174.971 60.791 C 176.395 55.344,184.719 53.395,188.862 57.538 M369.280 58.720 C 371.676 61.116,372.000 61.936,372.000 65.600 C 372.000 76.147,358.897 78.785,355.917 68.838 C 353.060 59.303,362.623 52.063,369.280 58.720 M316.000 78.000 L 316.000 83.200 320.000 83.200 L 324.000 83.200 324.000 78.000 L 324.000 72.800 320.000 72.800 L 316.000 72.800 316.000 78.000 " stroke="none" fill="#000000" fill-rule="evenodd"></path></g></svg>